<?xml version="1.0" encoding="iso-8859-1"?>
<!-- Generator: Adobe Illustrator 19.0.0, SVG Export Plug-In . SVG Version: 6.00 Build 0)  -->
<svg version="1.1" id="Capa_1" xmlns="http://www.w3.org/2000/svg" xmlns:xlink="http://www.w3.org/1999/xlink" x="0px" y="0px"
	 viewBox="0 0 512.612 512.612" style="enable-background:new 0 0 512.612 512.612;" xml:space="preserve">
<path style="fill:#B0BEC5;" d="M342.207,213.342H171.54c-5.891,0-10.667,4.776-10.667,10.667c0,73.472,35.904,117.333,96,117.333
	s96-43.861,96-117.333C352.873,218.117,348.098,213.342,342.207,213.342z"/>
<path style="fill:#CFD8DC;" d="M384.916,128.008C384.921,57.316,327.617,0.005,256.924,0S128.921,57.299,128.916,127.992
	c-0.001,19.932,4.652,39.588,13.589,57.404c-1.855,5.576-2.84,11.404-2.923,17.28c0,16.299,17.365,24.192,31.317,30.528
	c4.523,2.133,11.328,5.141,12.245,5.76c0.451,1.68,0.772,3.391,0.96,5.12c2.539,16.341,8.533,54.613,72.811,54.613
	s70.208-38.251,72.789-54.613c0.323-1.333,0.452-2.705,0.384-4.075c4.004-2.726,8.297-5.001,12.8-6.784
	c13.931-6.4,31.317-14.229,31.317-30.528c-0.075-5.878-1.068-11.709-2.944-17.28C380.184,167.591,384.858,147.942,384.916,128.008z"
	/>
<g>
	<path style="fill:#FAFAFA;" d="M246.228,256.008c-0.557-0.001-1.113-0.044-1.664-0.128c-5.82-0.908-9.803-6.361-8.896-12.181
		c5.909-37.845,13.739-41.024,21.205-41.024c7.467,0,15.296,3.157,21.205,41.024c0.838,5.831-3.209,11.238-9.04,12.076
		c-5.734,0.824-11.077-3.078-12.037-8.791l-0.128-0.811l-0.128,0.811C255.937,252.17,251.476,255.998,246.228,256.008z"/>
	<path style="fill:#FAFAFA;" d="M214.377,138.675c-6.786,0.215-13.225,3.052-17.963,7.915c-9.118,9.267-14.222,21.751-14.208,34.752
		c-1.326,16.347,10.851,30.674,27.198,32c1.598,0.13,3.204,0.13,4.802,0c17.067,0,32-19.947,32-42.667
		c2.221-15.441-8.496-29.758-23.936-31.979C219.653,138.32,216.996,138.313,214.377,138.675z"/>
	<path style="fill:#FAFAFA;" d="M317.332,146.59c-4.573-4.798-10.829-7.635-17.451-7.915c-15.55-2.288-30.011,8.462-32.299,24.012
		c-0.39,2.647-0.404,5.337-0.042,7.988c0,22.72,14.933,42.667,32,42.667c16.347,1.326,30.674-10.851,32-27.198
		c0.13-1.598,0.13-3.204,0-4.802C331.554,168.341,326.45,155.857,317.332,146.59z"/>
</g>
<g>
	<path style="fill:#B0BEC5;" d="M180.969,480.883c-21.578,1.443-42.89-5.427-59.563-19.2c-4.188-5.168-5.019-12.289-2.133-18.283
		c2.576-5.298,8.959-7.505,14.257-4.929c4.245,2.064,6.628,6.672,5.86,11.329c15.883,8.279,33.948,11.41,51.691,8.96
		c17.257-1.806,33.721-8.176,47.701-18.453c4.217-3.995,10.856-3.881,14.933,0.256c4.066,4.148,4.066,10.786,0,14.933
		c-16.902,13.687-37.433,22.139-59.072,24.32C190.123,480.55,185.549,480.907,180.969,480.883z"/>
	<path style="fill:#B0BEC5;" d="M182.207,512.008c-31.296,0-67.328-6.037-74.667-22.955c-2.486-5.532-1.335-12.022,2.901-16.363
		c4.035-4.292,10.785-4.501,15.078-0.466c2.502,2.352,3.719,5.766,3.269,9.17c16.769,7.352,35.067,10.536,53.333,9.28
		c19.833,1.67,39.78-1.393,58.197-8.939c4.931-3.133,11.466-1.716,14.656,3.179c3.205,4.802,1.95,11.29-2.816,14.549
		C230.428,509.966,206.232,514.305,182.207,512.008z"/>
	<path style="fill:#B0BEC5;" d="M167.764,438.323c-19.072,0-28.779-3.221-37.227-16.619c-3.07-5.028-1.483-11.592,3.544-14.663
		c4.929-3.01,11.357-1.551,14.504,3.292c4.373,6.912,6.4,7.68,43.755,5.717c17.18-1.546,34.14-4.958,50.581-10.176
		c5.602-1.832,11.629,1.224,13.461,6.827c1.832,5.602-1.224,11.629-6.827,13.461c-18.222,5.793-37.034,9.535-56.085,11.157
		C183.295,437.854,174.889,438.323,167.764,438.323z"/>
	<path style="fill:#B0BEC5;" d="M331.583,480.883c-4.6,0.041-9.196-0.301-13.739-1.024c-21.639-2.181-42.17-10.633-59.072-24.32
		c-4.093-4.237-3.975-10.99,0.262-15.083c4.134-3.993,10.687-3.993,14.821,0c13.97,10.204,30.39,16.533,47.595,18.347
		c17.742,2.442,35.805-0.689,51.691-8.96c-0.959-5.813,2.976-11.302,8.789-12.26c4.657-0.768,9.265,1.616,11.329,5.86
		c2.885,5.994,2.054,13.114-2.133,18.283C374.45,475.479,353.148,482.333,331.583,480.883z"/>
	<path style="fill:#B0BEC5;" d="M330.345,512.008c-24.047,2.308-48.266-2.031-70.016-12.544c-4.674-3.586-5.557-10.281-1.971-14.956
		c3.314-4.32,9.35-5.451,14.003-2.623l0,0c18.381,7.401,38.235,10.411,57.984,8.789c18.266,1.256,36.565-1.928,53.333-9.28
		c-0.772-5.84,3.336-11.201,9.176-11.973c3.405-0.45,6.818,0.767,9.17,3.269c4.237,4.34,5.387,10.83,2.901,16.363
		C397.673,505.971,361.62,512.008,330.345,512.008z"/>
	<path style="fill:#B0BEC5;" d="M344.788,438.323c-7.125,0-15.552-0.448-25.6-1.003c-19.052-1.623-37.863-5.365-56.085-11.157
		c-5.602-1.826-8.664-7.848-6.837-13.451c1.826-5.602,7.848-8.664,13.451-6.837c16.44,5.186,33.391,8.584,50.56,10.133
		c37.333,1.984,39.403,1.216,43.755-5.717c3.21-4.94,9.816-6.343,14.756-3.133c4.843,3.146,6.302,9.575,3.292,14.504
		C373.609,435.102,363.86,438.323,344.788,438.323z"/>
	<path style="fill:#B0BEC5;" d="M150.207,384.008c-5.891,0.011-10.675-4.757-10.686-10.648c-0.005-2.84,1.123-5.565,3.134-7.571
		c10.241-10.335,22.499-18.454,36.011-23.851c5.6-1.828,11.622,1.229,13.451,6.829c1.769,5.419-1.035,11.272-6.368,13.288
		c-10.476,4.371-19.988,10.765-27.989,18.816C155.758,382.879,153.041,384.008,150.207,384.008z"/>
	<path style="fill:#B0BEC5;" d="M363.54,384.008c-2.831,0.005-5.548-1.115-7.552-3.115c-8.015-8.06-17.541-14.461-28.032-18.837
		c-5.485-2.15-8.188-8.339-6.038-13.824c2.051-5.231,7.808-7.975,13.163-6.272c13.504,5.399,25.755,13.518,35.989,23.851
		c4.171,4.16,4.179,10.914,0.019,15.085c-2.006,2.011-4.731,3.139-7.571,3.134L363.54,384.008z"/>
</g>
<g>
	<path style="fill:#CFD8DC;" d="M150.932,344.35c-4.475-3.928-10.915-4.676-16.171-1.877c-20.258,8.117-40.99,14.999-62.08,20.608
		c-5.675,1.579-8.996,7.46-7.417,13.136c0.295,1.062,0.754,2.071,1.358,2.992c11.541,17.6,40.533,58.155,61.867,58.155h0.853
		c9.408-0.448,16.853-8.341,22.08-23.467C156.948,398.387,164.543,356.275,150.932,344.35z"/>
	<path style="fill:#CFD8DC;" d="M86.356,423.198c-1.374-3.078-3.961-5.449-7.147-6.549c-10.997-9.392-19.622-21.248-25.173-34.603
		c-0.723-3.889-3.54-7.059-7.317-8.235c-3.771-1.159-7.874-0.141-10.667,2.645c-18.304,18.304-15.104,109.717-13.76,125.867
		c0.467,5.539,5.109,9.79,10.667,9.771h21.333c5.891,0,10.667-4.776,10.667-10.667c2.44-13.58,6.68-26.773,12.608-39.232
		C86.228,440.648,89.876,430.942,86.356,423.198z"/>
	<path style="fill:#CFD8DC;" d="M446.975,369.587c-1.197-3.189-3.844-5.614-7.125-6.528c-21.09-5.613-41.821-12.494-62.08-20.608
		c-5.26-2.78-11.688-2.033-16.171,1.877c-13.547,11.925-5.995,54.037-0.555,69.611c5.227,15.04,12.672,22.912,22.08,23.467h0.853
		c21.461,0,50.389-40.533,61.867-58.155C447.754,376.399,448.174,372.803,446.975,369.587z"/>
	<path style="fill:#CFD8DC;" d="M476.543,376.456c-4.167-4.165-10.92-4.163-15.085,0.004c-1.522,1.522-2.547,3.47-2.942,5.586
		c-5.506,13.22-13.963,25.005-24.725,34.453c-3.244,1.254-5.935,3.621-7.595,6.677c-3.584,7.637,0.128,17.451,8.875,38.912
		c5.928,12.459,10.168,25.652,12.608,39.232c0,5.891,4.776,10.667,10.667,10.667h21.333c5.558,0.02,10.2-4.232,10.667-9.771
		C491.647,486.174,494.868,394.675,476.543,376.456z"/>
	<path style="fill:#CFD8DC;" d="M286.996,377.971c-12.16-16.636-35.505-20.265-52.141-8.104c-3.103,2.268-5.836,5.002-8.104,8.104
		c-1.598,2.323-2.212,5.184-1.707,7.957l21.333,117.333c1.05,5.797,6.6,9.645,12.396,8.596c4.377-0.793,7.803-4.218,8.596-8.596
		l21.333-117.333C289.208,383.155,288.594,380.294,286.996,377.971z"/>
</g>
<g>
</g>
<g>
</g>
<g>
</g>
<g>
</g>
<g>
</g>
<g>
</g>
<g>
</g>
<g>
</g>
<g>
</g>
<g>
</g>
<g>
</g>
<g>
</g>
<g>
</g>
<g>
</g>
<g>
</g>
</svg>
