<?xml version="1.0" encoding="iso-8859-1"?>
<!-- Generator: Adobe Illustrator 19.0.0, SVG Export Plug-In . SVG Version: 6.00 Build 0)  -->
<svg version="1.1" id="Capa_1" xmlns="http://www.w3.org/2000/svg" xmlns:xlink="http://www.w3.org/1999/xlink" x="0px" y="0px"
	 viewBox="0 0 512 512" style="enable-background:new 0 0 512 512;" xml:space="preserve">
<path style="fill:#FFE082;" d="M379.563,145.579c-2.791-1.996-6.371-2.528-9.621-1.429C332.725,153.939,294.475,159.26,256,160
	c-38.475-0.74-76.725-6.061-113.941-15.851c-5.585-1.873-11.632,1.136-13.505,6.721c-0.364,1.086-0.551,2.224-0.554,3.37v27.093
	c0.002,3.54,1.76,6.849,4.693,8.832c1.877,3.285,5.333,11.925,8.171,18.987c12.203,30.379,27.371,68.181,51.136,68.181
	c14.275-0.802,28.122-5.166,40.277-12.693c7.152-4.637,15.264-7.591,23.723-8.64c8.459,1.049,16.57,4.003,23.723,8.64
	c12.156,7.527,26.002,11.891,40.277,12.693c23.765,0,38.933-37.803,51.2-68.267c2.837-7.061,6.293-15.68,8.171-18.987
	c2.884-1.98,4.614-5.248,4.629-8.747V154.24C384.001,150.807,382.349,147.584,379.563,145.579z"/>
<path style="fill:#F44336;" d="M418.603,354.603l-74.048-23.467c-1.043-0.32-2.13-0.479-3.221-0.469H170.667
	c-1.093-0.002-2.179,0.163-3.221,0.491l-74.304,23.467C37.354,374.014-0.03,426.613,0,485.675v15.659
	C0,507.224,4.776,512,10.667,512h490.667c5.891,0,10.667-4.776,10.667-10.667v-15.659
	C511.943,426.557,474.462,373.957,418.603,354.603z"/>
<g>
	<path style="fill:#455A64;" d="M224,213.333h-21.333c-5.891,0-10.667-4.776-10.667-10.667c0-5.891,4.776-10.667,10.667-10.667H224
		c5.891,0,10.667,4.776,10.667,10.667C234.667,208.558,229.891,213.333,224,213.333z"/>
	<path style="fill:#455A64;" d="M309.333,213.333H288c-5.891,0-10.667-4.776-10.667-10.667c0-5.891,4.776-10.667,10.667-10.667
		h21.333c5.891,0,10.667,4.776,10.667,10.667C320,208.558,315.224,213.333,309.333,213.333z"/>
</g>
<path style="fill:#F44336;" d="M403.712,68.629l-1.643-1.643C399.211,64.256,331.648,0,266.667,0
	c-37.132,2.48-71.418,20.765-94.165,50.219c-13.126,13.253-21.182,30.694-22.763,49.28c0.771,4.261,4.042,7.633,8.277,8.533
	c6.229,1.323,13.845,3.499,22.379,5.888c24.463,8.038,49.889,12.773,75.605,14.08c25.91-1.336,51.524-6.136,76.16-14.272
	c9.92-3.322,20.136-5.686,30.507-7.061h3.499c2.027,2.307,4.95,3.629,8.021,3.627l0,0c4.965-0.027,9.254-3.477,10.347-8.32
	c1.644-7.445,7.212-13.405,14.528-15.552c5.663-1.623,8.938-7.53,7.315-13.193c-0.498-1.738-1.43-3.32-2.707-4.599H403.712z"/>
<g>
	<path style="fill:#CFD8DC;" d="M394.347,136.128L383.68,93.461c-1.168-4.767-5.439-8.122-10.347-8.128h-10.667
		c-12.355,1.197-24.527,3.839-36.267,7.872c-22.777,7.547-46.446,12.072-70.4,13.461c-23.75-1.392-47.216-5.881-69.803-13.355
		c-9.045-2.56-17.067-4.864-23.893-6.272c-10.219-2.133-17.429-2.773-21.333,2.475c-13.281,17.358-21.466,38.071-23.637,59.819
		c-0.005,2.831,1.115,5.548,3.115,7.552c4.301,3.59,9.365,6.151,14.805,7.488c39.412,10.529,79.959,16.225,120.747,16.96
		c40.773-0.746,81.304-6.441,120.704-16.96c5.485-1.332,10.593-3.901,14.933-7.509c1.963-2.013,3.051-4.719,3.029-7.531v-10.667
		C394.664,137.811,394.557,136.958,394.347,136.128z"/>
	<path style="fill:#CFD8DC;" d="M399.381,178.155c-7.502-5.542-16.748-8.2-26.048-7.488c-9.728,0-13.077,8.32-21.995,30.528
		C336.747,237.568,326.187,256,320,256c-10.815-0.908-21.247-4.43-30.4-10.261c-10.124-6.387-21.662-10.189-33.6-11.072
		c-11.938,0.883-23.476,4.685-33.6,11.072c-9.153,5.832-19.585,9.353-30.4,10.261c-6.187,0-16.747-18.432-31.339-54.805
		c-8.917-22.187-12.245-30.528-21.333-30.528l0,0c-9.502-0.843-18.984,1.812-26.667,7.467c-3.865,3.569-6.042,8.606-5.995,13.867
		c0,30.144,4.864,43.477,10.667,49.237c-1.148,25.368,3.143,50.688,12.587,74.261c7.624,9.123,16.996,16.63,27.563,22.08
		c5.8,3.181,11.249,6.963,16.256,11.285C195.777,370.486,225.141,383.028,256,384c30.841-0.977,60.188-13.51,82.219-35.115
		c5.007-4.322,10.456-8.105,16.256-11.285c10.567-5.45,19.938-12.957,27.563-22.08c9.443-23.573,13.735-48.893,12.587-74.261
		c5.867-5.76,10.667-19.093,10.667-49.237C405.36,186.773,403.215,181.739,399.381,178.155z"/>
</g>
<path style="fill:#455A64;" d="M256,320c-29.739,0-39.424-13.056-41.045-15.68c-3.068-5.029-1.477-11.593,3.552-14.661
	c4.764-2.906,10.964-1.648,14.219,2.885c0.576,0.576,6.208,6.123,23.275,6.123c18.005,0,23.275-6.123,23.317-6.187
	c3.078-4.856,9.511-6.297,14.367-3.219c0.054,0.034,0.108,0.069,0.161,0.104c4.948,3.281,6.369,9.913,3.2,14.933
	C295.424,306.944,285.739,320,256,320z"/>
<path style="fill:#D32F2F;" d="M405.333,64c-4.113-0.066-8.206,0.583-12.096,1.92c-14.572,4.158-25.759,15.867-29.248,30.613
	c-0.932,3.295-1.378,6.709-1.323,10.133c-0.12,10.048,3.517,19.779,10.197,27.285c7.871,9.861,19.853,15.537,32.469,15.381
	c23.564,0,42.667-19.103,42.667-42.667S428.898,64,405.333,64z"/>
<g>
</g>
<g>
</g>
<g>
</g>
<g>
</g>
<g>
</g>
<g>
</g>
<g>
</g>
<g>
</g>
<g>
</g>
<g>
</g>
<g>
</g>
<g>
</g>
<g>
</g>
<g>
</g>
<g>
</g>
</svg>
