<?xml version="1.0" encoding="iso-8859-1"?>
<!-- Generator: Adobe Illustrator 19.0.0, SVG Export Plug-In . SVG Version: 6.00 Build 0)  -->
<svg version="1.1" id="Capa_1" xmlns="http://www.w3.org/2000/svg" xmlns:xlink="http://www.w3.org/1999/xlink" x="0px" y="0px"
	 viewBox="0 0 512.009 512.009" style="enable-background:new 0 0 512.009 512.009;" xml:space="preserve">
<path style="fill:#FFA000;" d="M404.08,144.329c-1.852-3.477-5.469-5.651-9.408-5.653H117.339c-3.939,0.003-7.557,2.176-9.408,5.653
	c-0.917,1.728-22.592,43.413-22.592,143.68v42.667c0,4.037,2.279,7.728,5.888,9.536l42.667,21.333
	c1.483,0.743,3.12,1.131,4.779,1.131h234.667c1.659,0,3.295-0.387,4.779-1.131l42.667-21.333c3.609-1.808,5.888-5.499,5.888-9.536
	v-42.667C426.672,187.742,404.998,146.057,404.08,144.329z"/>
<g>
	<path style="fill:#FFC107;" d="M226.587,380.062c-26.018-6.974-49.406-21.458-67.243-41.643c-3.022-3.303-7.785-4.368-11.925-2.667
		l-87.68,36.032c-23.2,9.465-40.105,29.936-45.013,54.507L0.219,499.209c-1.178,5.772,2.546,11.406,8.318,12.585
		c0.703,0.143,1.418,0.216,2.136,0.215h213.333c5.891,0,10.667-4.776,10.667-10.667V390.409
		C234.671,385.513,231.337,381.247,226.587,380.062z"/>
	<path style="fill:#FFC107;" d="M497.286,426.27c-4.915-24.563-21.819-45.024-45.013-54.485l-87.68-36.053
		c-4.141-1.702-8.904-0.637-11.925,2.667c-17.837,20.185-41.224,34.668-67.243,41.643c-4.758,1.187-8.094,5.464-8.085,10.368
		v110.933c0,5.891,4.776,10.667,10.667,10.667h213.333c5.891,0.001,10.668-4.773,10.669-10.664c0-0.717-0.072-1.433-0.215-2.135
		L497.286,426.27z"/>
</g>
<path style="fill:#FFA000;" d="M294.406,381.876c-2.686-2.014-6.164-2.647-9.387-1.707c-19.005,5.106-39.021,5.106-58.027,0
	c-5.655-1.65-11.577,1.598-13.227,7.253c-0.283,0.97-0.427,1.976-0.427,2.987v110.933c0,5.891,4.776,10.667,10.667,10.667h64
	c5.891,0,10.667-4.776,10.667-10.667V390.409C298.672,387.052,297.092,383.89,294.406,381.876z"/>
<path style="fill:#455A64;" d="M369.072,307.209c-10.386-12.75-29.126-14.705-41.92-4.373
	c-16.483,23.149-42.752,37.367-71.147,38.507c-28.765-1.351-55.313-15.848-72-39.317c-12.994-9.36-31.035-6.944-41.109,5.504
	c-12.324,11.609-12.903,31.011-1.294,43.335c0.643,0.682,1.317,1.335,2.02,1.956c28.351,32.61,69.182,51.692,112.384,52.523
	c43.126-0.819,83.894-19.835,112.235-52.352c12.854-11.449,13.994-31.15,2.545-44.005
	C370.238,308.371,369.667,307.778,369.072,307.209z"/>
<path style="fill:#FFE082;" d="M397.232,154.697c-3.499-3.507-8.274-5.44-13.227-5.355h-256c-4.953-0.085-9.728,1.848-13.227,5.355
	c-8.235,8.299-8.107,22.677-8.107,42.603v5.376c0,29.653,13.077,52.181,30.656,53.333c6.48,22.007,17.07,42.586,31.211,60.651
	c20.528,27.974,52.786,44.945,87.467,46.016c35.082-1.111,67.658-18.451,88.171-46.933c13.733-17.877,24.066-38.124,30.485-59.733
	c17.579-1.131,30.677-23.659,30.677-53.333V197.3C405.339,177.374,405.467,162.996,397.232,154.697z"/>
<path style="fill:#FFC107;" d="M288.006,21.342h-64c-64.772,0.071-117.263,52.561-117.333,117.333v10.667
	c0,3.678,1.895,7.096,5.013,9.045l59.392,37.12c18.645,11.661,40.195,17.842,62.187,17.835h45.483
	c21.992,0.007,43.541-6.173,62.187-17.835l59.392-37.12c3.119-1.949,5.013-5.368,5.013-9.045v-10.667
	C405.268,73.904,352.778,21.413,288.006,21.342z"/>
<path style="fill:#F44336;" d="M401.99,386.91c-4.286-4.041-11.037-3.843-15.078,0.444c-1.867,1.98-2.907,4.6-2.906,7.322
	l0.235,20.693c-1.404,1.225-2.935,2.298-4.565,3.2c-10.175,4.634-16.805,14.678-17.067,25.856
	c0.715,14.545,13.085,25.757,27.63,25.042c0.526-0.026,1.051-0.067,1.575-0.125c8.251,0.076,16.299-2.554,22.912-7.488
	c7.648-5.811,12.082-14.908,11.947-24.512C424.772,418.112,416.01,400.209,401.99,386.91z"/>
<path style="fill:#455A64;" d="M294.662,13.001c-22.863-17.335-54.47-17.335-77.333,0c-2.528,2.03-3.996,5.099-3.989,8.341v85.333
	c0,23.564,19.103,42.667,42.667,42.667s42.667-19.103,42.667-42.667V21.342C298.674,18.097,297.198,15.026,294.662,13.001z"/>
<g>
</g>
<g>
</g>
<g>
</g>
<g>
</g>
<g>
</g>
<g>
</g>
<g>
</g>
<g>
</g>
<g>
</g>
<g>
</g>
<g>
</g>
<g>
</g>
<g>
</g>
<g>
</g>
<g>
</g>
</svg>
