<svg id="Layer_1" data-name="Layer 1" xmlns="http://www.w3.org/2000/svg" xmlns:xlink="http://www.w3.org/1999/xlink" viewBox="0 0 487.06 487.06"><defs><style>.cls-1{fill:none;}.cls-2{fill:#2196f3;}.cls-3{clip-path:url(#clip-path);}.cls-4{fill:#607d8b;}.cls-5{fill:#fff;}.cls-6{fill:#546d79;}.cls-7{fill:#dedede;}.cls-8{fill:#64b5f6;}.cls-9{fill:#579ed6;}.cls-10{fill:#1d83d4;}</style><clipPath id="clip-path" transform="translate(-247 -192.47)"><rect class="cls-1" x="277.53" y="225" width="384" height="384"/></clipPath></defs><circle class="cls-2" cx="243.53" cy="243.53" r="243.53"/><g class="cls-3"><path class="cls-4" d="M656.85,581.69l-109.2-109.2A151.28,151.28,0,0,0,581.53,377c0-83.81-68.19-152-152-152s-152,68.19-152,152,68.2,152,152,152A151.23,151.23,0,0,0,525,495.11l109.2,109.2a16,16,0,1,0,22.63-22.62Zm0,0" transform="translate(-247 -192.47)"/></g><path class="cls-5" d="M429.53,505c-70.57,0-128-57.43-128-128s57.43-128,128-128a128,128,0,0,1,0,256Zm0,0" transform="translate(-247 -192.47)"/><path class="cls-6" d="M322.11,269.57A151.49,151.49,0,0,0,277.53,377c0,83.81,68.2,152,152,152A151.23,151.23,0,0,0,525,495.11l109.2,109.2a16,16,0,0,0,22.63,0L520,467.46A127.53,127.53,0,0,1,429.53,505c-70.57,0-128-57.43-128-128a127.57,127.57,0,0,1,37.54-90.47Zm0,0" transform="translate(-247 -192.47)"/><path class="cls-7" d="M339.07,286.53A127.57,127.57,0,0,0,301.53,377c0,70.57,57.43,128,128,128A127.53,127.53,0,0,0,520,467.46Zm0,0" transform="translate(-247 -192.47)"/><path class="cls-8" d="M457.53,345a12,12,0,0,1-12-12V309a4,4,0,0,0-4-4h-24a4,4,0,0,0-4,4v24a12,12,0,0,1-24,0V309a28,28,0,0,1,28-28h24a28,28,0,0,1,28,28v24a12,12,0,0,1-12,12Zm0,0" transform="translate(-247 -192.47)"/><path class="cls-2" d="M489.53,449h-120a28,28,0,0,1-28-28V349a28,28,0,0,1,28-28h120a28,28,0,0,1,28,28v72a28,28,0,0,1-28,28Zm0,0" transform="translate(-247 -192.47)"/><rect class="cls-8" x="94.53" y="176.53" width="176" height="24"/><path class="cls-8" d="M429.53,409a12,12,0,0,1-12-12V365a12,12,0,0,1,24,0v32a12,12,0,0,1-12,12Zm0,0" transform="translate(-247 -192.47)"/><path class="cls-9" d="M429.53,281h-12a28,28,0,0,0-28,28v12h24V309a4,4,0,0,1,4-4h12Zm0,0" transform="translate(-247 -192.47)"/><path class="cls-10" d="M429.53,321h-60a28,28,0,0,0-28,28v72a28,28,0,0,0,28,28h60V409a12,12,0,0,1-12-12v-4h-76V369h76v-4a12,12,0,0,1,12-12Zm0,0" transform="translate(-247 -192.47)"/><rect class="cls-9" x="94.53" y="176.53" width="76" height="24"/><path class="cls-9" d="M429.53,353a12,12,0,0,0-12,12v32a12,12,0,0,0,12,12Zm0,0" transform="translate(-247 -192.47)"/></svg>