<svg id="Capa_1" data-name="Capa 1" xmlns="http://www.w3.org/2000/svg" viewBox="0 0 436 436"><defs><style>.cls-1{fill:#8dc5fc;}.cls-2{fill:#1e88e5;}.cls-3{fill:#64b5f6;}.cls-4{fill:#2196f3;}</style></defs><circle class="cls-1" cx="218" cy="218" r="218"/><path class="cls-2" d="M429.2,363.68a37.87,37.87,0,0,1-29.12,13.65H111.92A37.89,37.89,0,0,1,82.8,363.68L221.88,247.81l14.4,9.86a34.73,34.73,0,0,0,39.44,0l14.41-9.86Z" transform="translate(-30 -39.37)"/><path class="cls-3" d="M431.33,151.2l-141.2,96.61-14.41,9.86a34.73,34.73,0,0,1-39.44,0l-14.4-9.86L80.67,151.05a38.07,38.07,0,0,1,31.25-16.38H400.08A37.42,37.42,0,0,1,431.33,151.2Z" transform="translate(-30 -39.37)"/><path class="cls-4" d="M221.88,247.81,82.8,363.68A37.74,37.74,0,0,1,74,339.42V172.58a37.39,37.39,0,0,1,6.67-21.53Z" transform="translate(-30 -39.37)"/><path class="cls-4" d="M438,172.58V339.42a37.69,37.69,0,0,1-8.8,24.26L290.13,247.81l141.2-96.61A37.29,37.29,0,0,1,438,172.58Z" transform="translate(-30 -39.37)"/></svg>