<svg id="color" enable-background="new 0 0 24 24" height="512" viewBox="0 0 24 24" width="512" xmlns="http://www.w3.org/2000/svg"><path d="m23.707 22.293-6.825-6.825c1.322-1.633 2.118-3.708 2.118-5.968 0-5.238-4.262-9.5-9.5-9.5s-9.5 4.262-9.5 9.5 4.262 9.5 9.5 9.5c2.26 0 4.335-.796 5.968-2.118l6.825 6.825c.391.391 1.023.391 1.414 0s.391-1.023 0-1.414z" fill="#607d8b"/><path d="m9.5 17.5c-4.411 0-8-3.589-8-8s3.589-8 8-8 8 3.589 8 8-3.589 8-8 8z" fill="#fff"/><path d="m2.786 2.786c-1.721 1.72-2.786 4.095-2.786 6.714 0 5.238 4.262 9.5 9.5 9.5 2.26 0 4.335-.796 5.968-2.118l6.825 6.825c.195.195.451.293.707.293s.512-.098.707-.293l-8.553-8.553c-1.448 1.449-3.448 2.346-5.654 2.346-4.411 0-8-3.589-8-8 0-2.206.897-4.206 2.346-5.654z" fill="#546d79"/><path d="m3.846 3.846c-1.449 1.448-2.346 3.448-2.346 5.654 0 4.411 3.589 8 8 8 2.206 0 4.206-.897 5.654-2.346z" fill="#dedede"/><path d="m11.25 7.5c-.414 0-.75-.336-.75-.75v-1.5c0-.138-.112-.25-.25-.25h-1.5c-.138 0-.25.112-.25.25v1.5c0 .414-.336.75-.75.75s-.75-.336-.75-.75v-1.5c0-.965.785-1.75 1.75-1.75h1.5c.965 0 1.75.785 1.75 1.75v1.5c0 .414-.336.75-.75.75z" fill="#64b5f6"/><path d="m13.25 14h-7.5c-.965 0-1.75-.785-1.75-1.75v-4.5c0-.965.785-1.75 1.75-1.75h7.5c.965 0 1.75.785 1.75 1.75v4.5c0 .965-.785 1.75-1.75 1.75z" fill="#2196f3"/><path d="m15 10.5h-11v-1.5h11z" fill="#64b5f6"/><path d="m9.5 11.5c-.414 0-.75-.336-.75-.75v-2c0-.414.336-.75.75-.75s.75.336.75.75v2c0 .414-.336.75-.75.75z" fill="#64b5f6"/><path d="m9.5 3.5h-.75c-.965 0-1.75.785-1.75 1.75v.75h1.5v-.75c0-.138.112-.25.25-.25h.75z" fill="#579ed6"/><path d="m9.5 6h-1-1.5-1.25c-.965 0-1.75.785-1.75 1.75v4.5c0 .965.785 1.75 1.75 1.75h3.75v-2.5c-.414 0-.75-.336-.75-.75v-.25h-4.75v-1.5h4.75v-.25c0-.414.336-.75.75-.75z" fill="#1d83d4"/><g fill="#579ed6"><path d="m8.75 9h-4.75v1.5h4.75z"/><path d="m9.5 8c-.414 0-.75.336-.75.75v.25 1.5.25c0 .414.336.75.75.75z"/></g></svg>